<?xml version="1.0" encoding="utf-8"?>
<!-- Generator: Adobe Illustrator 28.0.0, SVG Export Plug-In . SVG Version: 6.00 Build 0)  -->
<svg version="1.1" id="Capa_1" xmlns="http://www.w3.org/2000/svg" xmlns:xlink="http://www.w3.org/1999/xlink" x="0px" y="0px"
	 viewBox="0 0 100 100" style="enable-background:new 0 0 100 100;" xml:space="preserve">
<style type="text/css">
	.st0{fill:#D3D3D4;}
	.st1{fill:#26A32F;}
	.st2{fill:#EA5F36;}
</style>
<circle class="st0" cx="49.8" cy="50.5" r="43.1"/>
<g>
	<path d="M48.5,52.5c1.1,0,2-0.9,2-2c0-0.6-0.2-1.1-0.6-1.4c-0.2,0.6-0.6,1.2-1.1,1.7s-1.1,0.9-1.7,1.1C47.5,52.3,48,52.5,48.5,52.5
		z"/>
	<path class="st1" d="M39.3,47.6c-0.3,0.9-0.4,1.9-0.4,2.9c0,5.3,4.3,9.7,9.7,9.7s9.7-4.3,9.7-9.7c0-5.3-4.3-9.7-9.7-9.7
		c-1,0-2,0.2-2.9,0.4c0,0,3.4,3.4,3.5,3.6c2.8,0.3,5.1,2.7,5.1,5.7c0,3.2-2.6,5.7-5.7,5.7c-2.9,0-5.4-2.2-5.7-5.1
		C42.7,51,39.3,47.6,39.3,47.6L39.3,47.6z"/>
	<path d="M48.5,67.9c9.6,0,17.4-7.8,17.4-17.4s-7.8-17.4-17.4-17.4c-3.2,0-6.1,0.9-8.7,2.3l2.9,2.9c1.7-0.8,3.7-1.3,5.8-1.3
		c7.4,0,13.4,6,13.4,13.4s-6,13.4-13.4,13.4s-13.4-6-13.4-13.4c0-2.1,0.5-4,1.3-5.8l-2.9-2.9c-1.5,2.6-2.3,5.5-2.3,8.7
		C31.1,60.1,38.9,67.9,48.5,67.9L48.5,67.9z"/>
	<path d="M26.2,26c0,1.2-1,2.2-2.2,2.2h-0.5L44.3,49c0.4,0.4,0.8,0.5,1.3,0.5s1-0.2,1.3-0.5c0.7-0.7,0.7-1.9,0-2.6L26.2,25.5V26z"/>
	<path class="st2" d="M48.5,21.7c-6.3,0-12.2,2.1-16.9,5.5l5.5,5.5c3.3-2.1,7.2-3.4,11.4-3.4c11.7,0,21.1,9.5,21.1,21.1
		s-9.5,21.1-21.1,21.1S27.4,62,27.4,50.4c0-4.2,1.2-8.1,3.4-11.4l-5.5-5.5c-3.5,4.8-5.5,10.6-5.5,17c0,15.9,12.9,28.8,28.8,28.8
		s28.8-12.9,28.8-28.8S64.4,21.7,48.5,21.7L48.5,21.7z"/>
	<path d="M23.2,20.4l-3.6-3.6c-0.3-0.3-0.7-0.1-0.7,0.3v1.2c0,1.4-1.2,2.6-2.6,2.6H15c-0.4,0-0.6,0.4-0.3,0.7l3.7,3.6
		c0.1,0.1,0.2,0.1,0.3,0.1h4.2c0.2,0,0.4-0.2,0.4-0.4v-4.2C23.4,20.6,23.3,20.5,23.2,20.4z"/>
</g>
</svg>
