<?xml version="1.0" encoding="utf-8"?>
<!-- Generator: Adobe Illustrator 28.0.0, SVG Export Plug-In . SVG Version: 6.00 Build 0)  -->
<svg version="1.1" id="Capa_1" xmlns="http://www.w3.org/2000/svg" xmlns:xlink="http://www.w3.org/1999/xlink" x="0px" y="0px"
	 viewBox="0 0 100 100" style="enable-background:new 0 0 100 100;" xml:space="preserve">
<style type="text/css">
	.st0{fill:#D3D3D4;}
	.st1{fill:#EA5F36;}
	.st2{fill:#221E1F;}
	.st3{fill:#26A32F;}
</style>
<circle class="st0" cx="49.8" cy="50.5" r="43.1"/>
<path class="st1" d="M61.6,53.2V28.6c0-0.8-0.3-1.4-0.8-1.9s-1.2-0.8-1.9-0.8H23.3c-0.8,0-1.4,0.3-1.9,0.8s-0.8,1.2-0.8,1.9v35.1
	c0,0.3,0.1,0.5,0.2,0.8c0.1,0.2,0.3,0.4,0.6,0.5s0.5,0.1,0.8,0.1s0.5-0.2,0.6-0.3l7.5-7.5c0.8-0.8,1.8-1.2,2.9-1.2h25.6
	c0.8,0,1.4-0.3,1.9-0.8S61.6,53.9,61.6,53.2z"/>
<path class="st2" d="M74.2,37.3H70c-0.4,0-0.7,0.1-0.9,0.4c-0.3,0.3-0.4,0.6-0.4,0.9v16.8c0,1.8-0.6,3.3-1.9,4.6s-2.8,1.9-4.6,1.9
	H34.5c-0.4,0-0.7,0.1-0.9,0.4c-0.3,0.3-0.4,0.6-0.4,0.9v4.2c0,0.8,0.3,1.4,0.8,1.9s1.2,0.8,1.9,0.8h28.4c1.1,0,2.1,0.4,2.9,1.2
	l7.5,7.5c0.2,0.2,0.4,0.3,0.6,0.3s0.5,0,0.8-0.1s0.4-0.3,0.6-0.5c0.1-0.2,0.2-0.5,0.2-0.8V40.1c0-0.8-0.3-1.4-0.8-1.9
	S74.9,37.3,74.2,37.3z"/>
<path class="st3" d="M60.8,34.2L60.8,34.2c-4.1,0-7.5-3.4-7.5-7.5l0,0c0-4.1,3.4-7.5,7.5-7.5l0,0c4.1,0,7.5,3.4,7.5,7.5l0,0
	C68.3,30.8,65,34.2,60.8,34.2z"/>
</svg>
